<?xml version="1.0" standalone="no"?>
<!DOCTYPE svg PUBLIC "-//W3C//DTD SVG 20010904//EN"
 "http://www.w3.org/TR/2001/REC-SVG-20010904/DTD/svg10.dtd">
<svg version="1.0" xmlns="http://www.w3.org/2000/svg"
 width="112.000000pt" height="112.000000pt" viewBox="0 0 112.000000 112.000000"
 preserveAspectRatio="xMidYMid meet">
<metadata>
Created by potrace 1.14, written by Peter Selinger 2001-2017
</metadata>
<g transform="translate(0.000000,112.000000) scale(0.100000,-0.100000)"
fill="#000000" stroke="none">
<path d="M208 962 c-17 -3 -18 -31 -18 -401 l0 -398 40 1 c22 1 40 -2 40 -7 0
-6 5 -6 13 0 6 5 23 8 37 6 31 -4 39 -4 70 0 14 2 33 -1 43 -5 10 -5 17 -5 17
1 0 5 8 7 19 4 26 -7 36 13 45 93 2 11 6 26 10 32 9 16 -12 25 -60 27 -24 0
-47 4 -51 8 -9 10 -10 455 -1 470 4 7 25 13 48 13 22 1 45 2 51 3 10 1 7 54
-7 121 -1 8 -3 18 -3 21 -1 9 -51 18 -51 10 0 -9 -55 -6 -69 4 -6 3 -11 3 -11
-2 0 -8 -110 -8 -133 -1 -7 3 -20 3 -29 0z"/>
<path d="M600 945 c0 -23 -1 -29 -12 -48 -12 -23 -20 -97 -10 -95 33 9 95 -39
120 -92 18 -37 22 -196 8 -273 -9 -49 -58 -105 -100 -112 -29 -6 -32 -10 -30
-38 1 -18 3 -34 5 -37 1 -3 3 -9 4 -15 10 -65 15 -71 53 -69 20 1 37 3 37 4 0
1 11 4 25 6 49 9 170 96 170 122 0 7 4 12 8 12 4 0 17 24 27 53 16 41 20 81
21 192 1 77 -3 153 -8 170 -14 43 -31 79 -43 87 -6 5 -6 8 -1 8 19 0 -85 88
-127 108 -57 27 -147 37 -147 17z"/>
</g>
</svg>
